<?xml version="1.0" encoding="utf-8"?>
<!-- Generator: Adobe Illustrator 23.1.0, SVG Export Plug-In . SVG Version: 6.00 Build 0)  -->
<svg version="1.1" xmlns="http://www.w3.org/2000/svg" xmlns:xlink="http://www.w3.org/1999/xlink" x="0px" y="0px"
	 viewBox="0 0 500 500" style="enable-background:new 0 0 500 500;" xml:space="preserve">
<style type="text/css">
	.st0{fill:none;stroke:#898989;stroke-width:5;stroke-miterlimit:10;}
	.st1{fill:none;stroke:#898989;stroke-width:10;stroke-miterlimit:10;}
	.st2{fill:none;stroke:#898989;stroke-width:2;stroke-miterlimit:10;}
	.st3{fill:none;stroke:#898989;stroke-miterlimit:10;}
	.st4{fill:#898989;}
</style>
<g id="Layer_2">
	<polyline class="st0" points="123.81,315 78.67,185 33.53,315 	"/>
	<line class="st1" x1="6.44" y1="315" x2="150.89" y2="315"/>
	<line class="st2" x1="123.81" y1="315" x2="48.33" y2="272.39"/>
	<line class="st2" x1="33.53" y1="315" x2="109" y2="272.39"/>
	<polyline class="st2" points="109.1,272.65 108.82,272.49 78.67,255.46 58.21,243.92 	"/>
	<polyline class="st2" points="48.24,272.65 48.51,272.49 78.67,255.46 99.12,243.92 	"/>
	<polyline class="st2" points="99.07,244.04 99.07,244.04 78.52,232.6 65.13,224.54 	"/>
	<polyline class="st2" points="58.26,244.04 58.26,244.04 78.52,232.6 92.57,224.54 	"/>
	<polyline class="st2" points="69.4,211.7 78.52,216.85 92.46,224.72 92.57,224.54 92.57,224.54 	"/>
	<polyline class="st2" points="64.95,224.51 78.52,216.85 87.89,211.56 	"/>
</g>
<g id="Layer_3">
	<path class="st3" d="M484.08,315h-53.63c-1.77,0-3.2-1.43-3.2-3.2V188.2c0-1.77,1.43-3.2,3.2-3.2h53.63c1.77,0,3.2,1.43,3.2,3.2
		v123.6C487.28,313.57,485.85,315,484.08,315z"/>
	<rect x="429.97" y="197.49" class="st3" width="54.58" height="105.02"/>
	<circle class="st3" cx="458" cy="309" r="4.5"/>
	<line class="st3" x1="451.02" y1="191" x2="463.51" y2="191"/>
	<polyline class="st2" points="151,250 295,229 250,250 406,234 	"/>
	<polyline class="st2" points="388.57,229.6 407.41,233.56 390.93,243.08 	"/>
	<polyline class="st2" points="165.03,240.21 148.81,250.59 167.59,253.65 	"/>
	<path class="st4" d="M445.36,254c0.4-0.35,0.72-0.73,0.95-1.15s0.41-0.97,0.54-1.65l0.38-2.03h4.8l-0.84,4.82h0.93l-0.6,3.45h-1.93
		l0.34-1.92h-3.32l-0.33,1.92h-1.97l0.59-3.44L445.36,254z M447.61,254.01l1.65-0.03l0.57-3.29h-0.97l-0.08,0.47
		c-0.12,0.67-0.27,1.23-0.46,1.68S447.9,253.68,447.61,254.01z"/>
	<path class="st4" d="M460.44,248.56h-3.59l-0.23,1.35l0.93,0.01c0.59,0.02,1.12,0.14,1.58,0.36s0.81,0.54,1.05,0.95
		s0.33,0.87,0.29,1.4c-0.06,0.87-0.44,1.57-1.13,2.09s-1.55,0.79-2.58,0.79h-3.12l1.48-8.53h5.61L460.44,248.56z M456.34,251.49
		l-0.42,2.43l0.92,0.01c0.42,0,0.78-0.12,1.08-0.36s0.48-0.56,0.54-0.95c0.05-0.33-0.02-0.59-0.2-0.79s-0.45-0.31-0.8-0.33
		L456.34,251.49z"/>
	<path class="st4" d="M465.83,253.3l2.11-4.14h2.46l-1.1,6.34h-1.93l0.59-3.38l-1.78,3.38h-1.28l-0.6-3.4l-0.59,3.4h-1.93l1.1-6.34
		h2.33L465.83,253.3z"/>
</g>
</svg>
